<svg xmlns="http://www.w3.org/2000/svg" xmlns:xlink="http://www.w3.org/1999/xlink" width="207" zoomAndPan="magnify" viewBox="0 0 155.25 50.249999" height="67" preserveAspectRatio="xMidYMid meet" version="1.0"><defs><g/></defs><path fill="#0097b2" d="M 27.949219 21.339844 L 27.949219 36.863281 L 36.417969 36.863281 L 36.417969 28.394531 L 42.0625 28.394531 L 42.0625 36.863281 L 50.535156 36.863281 L 50.535156 21.339844 L 39.242188 11.457031 Z M 27.949219 21.339844 " fill-opacity="1" fill-rule="nonzero"/><g fill="#263238" fill-opacity="1"><g transform="translate(9.27636, 36.075922)"><g><path d="M 13.234375 -10.765625 C 15.398438 -9.960938 16.484375 -8.335938 16.484375 -5.890625 C 16.484375 -4.023438 15.804688 -2.578125 14.453125 -1.546875 C 13.109375 -0.515625 11.1875 0 8.6875 0 L 1.171875 0 L 1.171875 -20.875 L 9.46875 -20.875 C 11.414062 -20.875 12.910156 -20.359375 13.953125 -19.328125 C 15.003906 -18.296875 15.53125 -16.820312 15.53125 -14.90625 C 15.53125 -12.957031 14.765625 -11.578125 13.234375 -10.765625 Z M 6.59375 -12.890625 L 9.015625 -12.890625 C 9.992188 -12.890625 10.484375 -13.335938 10.484375 -14.234375 C 10.484375 -15.117188 9.992188 -15.632812 9.015625 -15.78125 L 6.59375 -15.78125 Z M 9.34375 -5.046875 C 10.519531 -5.046875 11.109375 -5.578125 11.109375 -6.640625 C 11.109375 -7.691406 10.519531 -8.21875 9.34375 -8.21875 L 6.59375 -8.21875 L 6.59375 -5.046875 Z M 9.34375 -5.046875 "/></g></g></g><g fill="#263238" fill-opacity="1"><g transform="translate(52.327365, 36.075922)"><g><path d="M 7.6875 -20.875 C 10.382812 -20.875 12.445312 -19.96875 13.875 -18.15625 C 15.3125 -16.34375 16.03125 -13.769531 16.03125 -10.4375 C 16.03125 -7.09375 15.3125 -4.515625 13.875 -2.703125 C 12.445312 -0.898438 10.382812 0 7.6875 0 L 1.171875 0 L 1.171875 -20.875 Z M 8.21875 -5.546875 C 9 -5.546875 9.59375 -5.96875 10 -6.8125 C 10.40625 -7.664062 10.609375 -8.875 10.609375 -10.4375 C 10.609375 -11.988281 10.40625 -13.195312 10 -14.0625 C 9.59375 -14.925781 9 -15.359375 8.21875 -15.359375 L 6.71875 -15.359375 L 6.71875 -5.546875 Z M 8.21875 -5.546875 "/></g></g></g><g fill="#263238" fill-opacity="1"><g transform="translate(69.683915, 36.075922)"><g><path d="M 13.9375 -9.015625 C 15.269531 -7.765625 15.9375 -5.898438 15.9375 -3.421875 L 15.9375 0 L 10.859375 0 L 10.859375 -4.09375 C 10.859375 -5.925781 10.101562 -7.050781 8.59375 -7.46875 L 6.71875 -7.46875 L 6.71875 0 L 1.171875 0 L 1.171875 -20.875 L 9.6875 -20.875 C 11.71875 -20.875 13.28125 -20.296875 14.375 -19.140625 C 15.476562 -17.984375 16.03125 -16.332031 16.03125 -14.1875 C 16.03125 -11.820312 15.332031 -10.097656 13.9375 -9.015625 Z M 9.21875 -12.359375 C 10.476562 -12.359375 11.109375 -12.925781 11.109375 -14.0625 C 11.109375 -15.226562 10.476562 -15.8125 9.21875 -15.8125 L 6.71875 -15.8125 L 6.71875 -12.359375 Z M 9.21875 -12.359375 "/></g></g></g><g fill="#263238" fill-opacity="1"><g transform="translate(87.207415, 36.075922)"><g><path d="M 12.140625 -3 L 6.515625 -3 L 5.671875 0 L 0.25 0 L 6.546875 -20.875 L 12.1875 -20.875 L 18.40625 0 L 13.015625 0 Z M 10.734375 -7.890625 L 9.34375 -13.90625 L 8.015625 -7.890625 Z M 10.734375 -7.890625 "/></g></g></g><g fill="#263238" fill-opacity="1"><g transform="translate(106.31672, 36.075922)"><g><path d="M 13.234375 -10.765625 C 15.398438 -9.960938 16.484375 -8.335938 16.484375 -5.890625 C 16.484375 -4.023438 15.804688 -2.578125 14.453125 -1.546875 C 13.109375 -0.515625 11.1875 0 8.6875 0 L 1.171875 0 L 1.171875 -20.875 L 9.46875 -20.875 C 11.414062 -20.875 12.910156 -20.359375 13.953125 -19.328125 C 15.003906 -18.296875 15.53125 -16.820312 15.53125 -14.90625 C 15.53125 -12.957031 14.765625 -11.578125 13.234375 -10.765625 Z M 6.59375 -12.890625 L 9.015625 -12.890625 C 9.992188 -12.890625 10.484375 -13.335938 10.484375 -14.234375 C 10.484375 -15.117188 9.992188 -15.632812 9.015625 -15.78125 L 6.59375 -15.78125 Z M 9.34375 -5.046875 C 10.519531 -5.046875 11.109375 -5.578125 11.109375 -6.640625 C 11.109375 -7.691406 10.519531 -8.21875 9.34375 -8.21875 L 6.59375 -8.21875 L 6.59375 -5.046875 Z M 9.34375 -5.046875 "/></g></g></g><g fill="#263238" fill-opacity="1"><g transform="translate(123.840118, 36.075922)"><g><path d="M 8.9375 0.296875 C 6.40625 0.296875 4.441406 -0.632812 3.046875 -2.5 C 1.648438 -4.363281 0.953125 -7.007812 0.953125 -10.4375 C 0.953125 -13.851562 1.648438 -16.492188 3.046875 -18.359375 C 4.441406 -20.222656 6.40625 -21.15625 8.9375 -21.15625 C 11.488281 -21.15625 13.460938 -20.222656 14.859375 -18.359375 C 16.253906 -16.492188 16.953125 -13.851562 16.953125 -10.4375 C 16.953125 -7.007812 16.253906 -4.363281 14.859375 -2.5 C 13.460938 -0.632812 11.488281 0.296875 8.9375 0.296875 Z M 8.96875 -5.265625 C 9.78125 -5.265625 10.398438 -5.707031 10.828125 -6.59375 C 11.265625 -7.488281 11.492188 -8.769531 11.515625 -10.4375 C 11.492188 -12.101562 11.265625 -13.378906 10.828125 -14.265625 C 10.398438 -15.160156 9.78125 -15.609375 8.96875 -15.609375 C 8.132812 -15.609375 7.492188 -15.160156 7.046875 -14.265625 C 6.609375 -13.378906 6.390625 -12.101562 6.390625 -10.4375 C 6.390625 -8.769531 6.609375 -7.488281 7.046875 -6.59375 C 7.492188 -5.707031 8.132812 -5.265625 8.96875 -5.265625 Z M 8.96875 -5.265625 "/></g></g></g></svg>